solid OpenSCAD_Model
  facet normal -1 0 0
    outer loop
      vertex 0 89 1.5
      vertex 0 94 0
      vertex 0 89 0
    endloop
  endfacet
  facet normal -1 0 0
    outer loop
      vertex 0 94 0
      vertex 0 89 1.5
      vertex 0 94 13
    endloop
  endfacet
  facet normal -1 0 0
    outer loop
      vertex 0 62 13
      vertex 0 89 1.5
      vertex 0 62 1.5
    endloop
  endfacet
  facet normal -1 0 0
    outer loop
      vertex 0 89 1.5
      vertex 0 62 13
      vertex 0 94 13
    endloop
  endfacet
  facet normal -1 0 0
    outer loop
      vertex 0 5 0
      vertex 0 0 0
      vertex 0 5 1.5
    endloop
  endfacet
  facet normal -1 0 0
    outer loop
      vertex 0 5 1.5
      vertex 0 32 13
      vertex 0 32 1.5
    endloop
  endfacet
  facet normal -1 0 0
    outer loop
      vertex 0 0 13
      vertex 0 5 1.5
      vertex 0 0 0
    endloop
  endfacet
  facet normal -1 0 0
    outer loop
      vertex 0 5 1.5
      vertex 0 0 13
      vertex 0 32 13
    endloop
  endfacet
  facet normal -0 0 1
    outer loop
      vertex 0.5 62 1.5
      vertex 1.5 32 1.5
      vertex 1.5 62 1.5
    endloop
  endfacet
  facet normal 0 0 1
    outer loop
      vertex 1.5 32 1.5
      vertex 0.5 62 1.5
      vertex 0.5 32 1.5
    endloop
  endfacet
  facet normal 0 0 1
    outer loop
      vertex 138.5 94 1.5
      vertex 115 89 1.5
      vertex 138.5 89 1.5
    endloop
  endfacet
  facet normal -0 0 1
    outer loop
      vertex 110 89 1.5
      vertex 115 64.3333 1.5
      vertex 115 89 1.5
    endloop
  endfacet
  facet normal 0 0 1
    outer loop
      vertex 115 64.3333 1.5
      vertex 110 89 1.5
      vertex 115 59.3333 1.5
    endloop
  endfacet
  facet normal 0 0 1
    outer loop
      vertex 115 59.3333 1.5
      vertex 110 89 1.5
      vertex 115 34.6667 1.5
    endloop
  endfacet
  facet normal 0 0 1
    outer loop
      vertex 110 5 1.5
      vertex 115 34.6667 1.5
      vertex 110 89 1.5
    endloop
  endfacet
  facet normal 0 0 1
    outer loop
      vertex 115 34.6667 1.5
      vertex 110 5 1.5
      vertex 115 29.6667 1.5
    endloop
  endfacet
  facet normal 0 0 1
    outer loop
      vertex 138.5 94 1.5
      vertex 110 89 1.5
      vertex 115 89 1.5
    endloop
  endfacet
  facet normal -0 0 1
    outer loop
      vertex 1.5 94 1.5
      vertex 110 89 1.5
      vertex 138.5 94 1.5
    endloop
  endfacet
  facet normal 0 0 1
    outer loop
      vertex 1.5 62 1.5
      vertex 8 89 1.5
      vertex 1.5 94 1.5
    endloop
  endfacet
  facet normal 0 0 1
    outer loop
      vertex 110 89 1.5
      vertex 1.5 94 1.5
      vertex 8 89 1.5
    endloop
  endfacet
  facet normal -0 0 1
    outer loop
      vertex 115 64.3333 1.5
      vertex 155 59.3333 1.5
      vertex 155 64.3333 1.5
    endloop
  endfacet
  facet normal 0 0 1
    outer loop
      vertex 155 59.3333 1.5
      vertex 115 64.3333 1.5
      vertex 115 59.3333 1.5
    endloop
  endfacet
  facet normal -0 0 1
    outer loop
      vertex 115 34.6667 1.5
      vertex 155 29.6667 1.5
      vertex 155 34.6667 1.5
    endloop
  endfacet
  facet normal 0 0 1
    outer loop
      vertex 155 29.6667 1.5
      vertex 115 34.6667 1.5
      vertex 115 29.6667 1.5
    endloop
  endfacet
  facet normal -0 0 1
    outer loop
      vertex 115 5 1.5
      vertex 138.5 0 1.5
      vertex 138.5 5 1.5
    endloop
  endfacet
  facet normal 0 0 1
    outer loop
      vertex 115 29.6667 1.5
      vertex 110 5 1.5
      vertex 115 5 1.5
    endloop
  endfacet
  facet normal -0 0 1
    outer loop
      vertex 110 5 1.5
      vertex 138.5 0 1.5
      vertex 115 5 1.5
    endloop
  endfacet
  facet normal 0 0 1
    outer loop
      vertex 1.5 0 1.5
      vertex 110 5 1.5
      vertex 8 5 1.5
    endloop
  endfacet
  facet normal 0 0 1
    outer loop
      vertex 8 89 1.5
      vertex 1.5 62 1.5
      vertex 8 5 1.5
    endloop
  endfacet
  facet normal -0 0 1
    outer loop
      vertex 1.5 32 1.5
      vertex 8 5 1.5
      vertex 1.5 62 1.5
    endloop
  endfacet
  facet normal 0 0 1
    outer loop
      vertex 110 5 1.5
      vertex 1.5 0 1.5
      vertex 138.5 0 1.5
    endloop
  endfacet
  facet normal 0 0 1
    outer loop
      vertex 1.5 0 1.5
      vertex 8 5 1.5
      vertex 1.5 32 1.5
    endloop
  endfacet
  facet normal 0 0 -1
    outer loop
      vertex 0 5 1.5
      vertex 0.5 32 1.5
      vertex 0.5 5 1.5
    endloop
  endfacet
  facet normal -0 0 -1
    outer loop
      vertex 0.5 32 1.5
      vertex 0 5 1.5
      vertex 0 32 1.5
    endloop
  endfacet
  facet normal 0 0 -1
    outer loop
      vertex 0 62 1.5
      vertex 0.5 89 1.5
      vertex 0.5 62 1.5
    endloop
  endfacet
  facet normal -0 0 -1
    outer loop
      vertex 0.5 89 1.5
      vertex 0 62 1.5
      vertex 0 89 1.5
    endloop
  endfacet
  facet normal 1 -0 0
    outer loop
      vertex 140 0 1.5
      vertex 140 5 0
      vertex 140 5 1.5
    endloop
  endfacet
  facet normal 1 0 0
    outer loop
      vertex 140 5 0
      vertex 140 0 1.5
      vertex 140 0 0
    endloop
  endfacet
  facet normal 0 1 -0
    outer loop
      vertex 140 5 1.5
      vertex 138.5 5 11
      vertex 140 5 11
    endloop
  endfacet
  facet normal 0 1 0
    outer loop
      vertex 140 5 1.5
      vertex 138.5 5 1.5
      vertex 138.5 5 11
    endloop
  endfacet
  facet normal 0 1 -0
    outer loop
      vertex 140 5 0
      vertex 138.5 5 1.5
      vertex 140 5 1.5
    endloop
  endfacet
  facet normal 0 1 0
    outer loop
      vertex 115 5 0
      vertex 138.5 5 1.5
      vertex 140 5 0
    endloop
  endfacet
  facet normal 0 1 0
    outer loop
      vertex 138.5 5 1.5
      vertex 115 5 0
      vertex 115 5 1.5
    endloop
  endfacet
  facet normal 0 1 0
    outer loop
      vertex 138.5 5 11
      vertex 140 5 12.5
      vertex 140 5 11
    endloop
  endfacet
  facet normal 0 1 0
    outer loop
      vertex 140 5 12.5
      vertex 138.5 5 11
      vertex 130 5 12.5
    endloop
  endfacet
  facet normal 0 1 0
    outer loop
      vertex 130 5 12.5
      vertex 138.5 5 11
      vertex 130 5 11
    endloop
  endfacet
  facet normal 0 1 -0
    outer loop
      vertex 0.5 5 0
      vertex 0 5 1.5
      vertex 0.5 5 1.5
    endloop
  endfacet
  facet normal 0 1 0
    outer loop
      vertex 0 5 1.5
      vertex 0.5 5 0
      vertex 0 5 0
    endloop
  endfacet
  facet normal 0 1 -0
    outer loop
      vertex 110 5 0
      vertex 8 5 1.5
      vertex 110 5 1.5
    endloop
  endfacet
  facet normal 0 1 0
    outer loop
      vertex 8 5 1.5
      vertex 110 5 0
      vertex 8 5 0
    endloop
  endfacet
  facet normal 0 0 -1
    outer loop
      vertex 140 0 0
      vertex 115 5 0
      vertex 140 5 0
    endloop
  endfacet
  facet normal 0 0 -1
    outer loop
      vertex 110 5 0
      vertex 115 29.6667 0
      vertex 115 5 0
    endloop
  endfacet
  facet normal -0 0 -1
    outer loop
      vertex 115 29.6667 0
      vertex 110 5 0
      vertex 115 34.6667 0
    endloop
  endfacet
  facet normal -0 0 -1
    outer loop
      vertex 115 34.6667 0
      vertex 110 5 0
      vertex 115 59.3333 0
    endloop
  endfacet
  facet normal 0 0 -1
    outer loop
      vertex 110 89 0
      vertex 115 59.3333 0
      vertex 110 5 0
    endloop
  endfacet
  facet normal 0 0 -1
    outer loop
      vertex 115 59.3333 0
      vertex 110 89 0
      vertex 115 64.3333 0
    endloop
  endfacet
  facet normal 0 0 -1
    outer loop
      vertex 140 0 0
      vertex 110 5 0
      vertex 115 5 0
    endloop
  endfacet
  facet normal 0 0 -1
    outer loop
      vertex 0 0 0
      vertex 110 5 0
      vertex 140 0 0
    endloop
  endfacet
  facet normal 0 0 -1
    outer loop
      vertex 8 5 0
      vertex 0.5 5 0
      vertex 8 89 0
    endloop
  endfacet
  facet normal -0 0 -1
    outer loop
      vertex 110 5 0
      vertex 0 0 0
      vertex 8 5 0
    endloop
  endfacet
  facet normal -0 0 -1
    outer loop
      vertex 8 5 0
      vertex 0 0 0
      vertex 0.5 5 0
    endloop
  endfacet
  facet normal -0 0 -1
    outer loop
      vertex 0.5 5 0
      vertex 0 0 0
      vertex 0 5 0
    endloop
  endfacet
  facet normal 0 0 -1
    outer loop
      vertex 115 29.6667 0
      vertex 156.5 34.6667 0
      vertex 156.5 29.6667 0
    endloop
  endfacet
  facet normal -0 0 -1
    outer loop
      vertex 156.5 34.6667 0
      vertex 115 29.6667 0
      vertex 115 34.6667 0
    endloop
  endfacet
  facet normal 0 0 -1
    outer loop
      vertex 115 59.3333 0
      vertex 156.5 64.3333 0
      vertex 156.5 59.3333 0
    endloop
  endfacet
  facet normal -0 0 -1
    outer loop
      vertex 156.5 64.3333 0
      vertex 115 59.3333 0
      vertex 115 64.3333 0
    endloop
  endfacet
  facet normal 0 0 -1
    outer loop
      vertex 115 89 0
      vertex 140 94 0
      vertex 140 89 0
    endloop
  endfacet
  facet normal 0 0 -1
    outer loop
      vertex 115 64.3333 0
      vertex 110 89 0
      vertex 115 89 0
    endloop
  endfacet
  facet normal 0 0 -1
    outer loop
      vertex 110 89 0
      vertex 140 94 0
      vertex 115 89 0
    endloop
  endfacet
  facet normal 0 0 -1
    outer loop
      vertex 0 94 0
      vertex 110 89 0
      vertex 8 89 0
    endloop
  endfacet
  facet normal 0 0 -1
    outer loop
      vertex 0.5 89 0
      vertex 8 89 0
      vertex 0.5 5 0
    endloop
  endfacet
  facet normal 0 0 -1
    outer loop
      vertex 0 94 0
      vertex 8 89 0
      vertex 0.5 89 0
    endloop
  endfacet
  facet normal 0 0 -1
    outer loop
      vertex 0 94 0
      vertex 0.5 89 0
      vertex 0 89 0
    endloop
  endfacet
  facet normal 0 0 -1
    outer loop
      vertex 110 89 0
      vertex 0 94 0
      vertex 140 94 0
    endloop
  endfacet
  facet normal 0 -1 0
    outer loop
      vertex 0 0 13
      vertex 1.5 0 11.5
      vertex 6.5 0 13
    endloop
  endfacet
  facet normal 0 -1 0
    outer loop
      vertex 0 0 13
      vertex 1.5 0 1.5
      vertex 1.5 0 11.5
    endloop
  endfacet
  facet normal 0 -1 0
    outer loop
      vertex 140 0 0
      vertex 138.5 0 1.5
      vertex 1.5 0 1.5
    endloop
  endfacet
  facet normal 0 -1 0
    outer loop
      vertex 0 0 0
      vertex 1.5 0 1.5
      vertex 0 0 13
    endloop
  endfacet
  facet normal 0 -1 0
    outer loop
      vertex 140 0 0
      vertex 1.5 0 1.5
      vertex 0 0 0
    endloop
  endfacet
  facet normal 0 -1 0
    outer loop
      vertex 138.5 0 1.5
      vertex 140 0 0
      vertex 140 0 1.5
    endloop
  endfacet
  facet normal 0 -1 -0
    outer loop
      vertex 6.5 0 13
      vertex 1.5 0 11.5
      vertex 6.5 0 11.5
    endloop
  endfacet
  facet normal 0 -1 0
    outer loop
      vertex 138.5 0 11
      vertex 130 0 12.5
      vertex 130 0 11
    endloop
  endfacet
  facet normal 0 -1 0
    outer loop
      vertex 130 0 12.5
      vertex 138.5 0 11
      vertex 140 0 12.5
    endloop
  endfacet
  facet normal 0 -1 0
    outer loop
      vertex 138.5 0 11
      vertex 140 0 11
      vertex 140 0 12.5
    endloop
  endfacet
  facet normal 0 -1 0
    outer loop
      vertex 138.5 0 1.5
      vertex 140 0 11
      vertex 138.5 0 11
    endloop
  endfacet
  facet normal 0 -1 -0
    outer loop
      vertex 140 0 11
      vertex 138.5 0 1.5
      vertex 140 0 1.5
    endloop
  endfacet
  facet normal 1 -0 0
    outer loop
      vertex 140 89 1.5
      vertex 140 94 0
      vertex 140 94 1.5
    endloop
  endfacet
  facet normal 1 0 0
    outer loop
      vertex 140 94 0
      vertex 140 89 1.5
      vertex 140 89 0
    endloop
  endfacet
  facet normal 0 1 -0
    outer loop
      vertex 140 94 1.5
      vertex 138.5 94 11
      vertex 140 94 11
    endloop
  endfacet
  facet normal 0 1 0
    outer loop
      vertex 140 94 1.5
      vertex 138.5 94 1.5
      vertex 138.5 94 11
    endloop
  endfacet
  facet normal 0 1 -0
    outer loop
      vertex 140 94 0
      vertex 138.5 94 1.5
      vertex 140 94 1.5
    endloop
  endfacet
  facet normal 0 1 0
    outer loop
      vertex 138.5 94 1.5
      vertex 140 94 0
      vertex 1.5 94 1.5
    endloop
  endfacet
  facet normal 0 1 0
    outer loop
      vertex 138.5 94 11
      vertex 140 94 12.5
      vertex 140 94 11
    endloop
  endfacet
  facet normal 0 1 0
    outer loop
      vertex 140 94 12.5
      vertex 138.5 94 11
      vertex 130 94 12.5
    endloop
  endfacet
  facet normal 0 1 0
    outer loop
      vertex 130 94 12.5
      vertex 138.5 94 11
      vertex 130 94 11
    endloop
  endfacet
  facet normal 0 1 0
    outer loop
      vertex 1.5 94 11.5
      vertex 6.5 94 13
      vertex 6.5 94 11.5
    endloop
  endfacet
  facet normal 0 1 0
    outer loop
      vertex 6.5 94 13
      vertex 1.5 94 11.5
      vertex 0 94 13
    endloop
  endfacet
  facet normal 0 1 -0
    outer loop
      vertex 1.5 94 1.5
      vertex 0 94 13
      vertex 1.5 94 11.5
    endloop
  endfacet
  facet normal 0 1 0
    outer loop
      vertex 1.5 94 1.5
      vertex 0 94 0
      vertex 0 94 13
    endloop
  endfacet
  facet normal 0 1 0
    outer loop
      vertex 0 94 0
      vertex 1.5 94 1.5
      vertex 140 94 0
    endloop
  endfacet
  facet normal 0 -1 0
    outer loop
      vertex 115 89 0
      vertex 138.5 89 1.5
      vertex 115 89 1.5
    endloop
  endfacet
  facet normal 0 -1 0
    outer loop
      vertex 140 89 0
      vertex 138.5 89 1.5
      vertex 115 89 0
    endloop
  endfacet
  facet normal 0 -1 0
    outer loop
      vertex 138.5 89 1.5
      vertex 140 89 0
      vertex 140 89 1.5
    endloop
  endfacet
  facet normal 0 -1 0
    outer loop
      vertex 138.5 89 11
      vertex 130 89 12.5
      vertex 130 89 11
    endloop
  endfacet
  facet normal 0 -1 0
    outer loop
      vertex 130 89 12.5
      vertex 138.5 89 11
      vertex 140 89 12.5
    endloop
  endfacet
  facet normal 0 -1 0
    outer loop
      vertex 138.5 89 11
      vertex 140 89 11
      vertex 140 89 12.5
    endloop
  endfacet
  facet normal 0 -1 0
    outer loop
      vertex 138.5 89 1.5
      vertex 140 89 11
      vertex 138.5 89 11
    endloop
  endfacet
  facet normal 0 -1 -0
    outer loop
      vertex 140 89 11
      vertex 138.5 89 1.5
      vertex 140 89 1.5
    endloop
  endfacet
  facet normal 0 -1 0
    outer loop
      vertex 0 89 0
      vertex 0.5 89 1.5
      vertex 0 89 1.5
    endloop
  endfacet
  facet normal 0 -1 -0
    outer loop
      vertex 0.5 89 1.5
      vertex 0 89 0
      vertex 0.5 89 0
    endloop
  endfacet
  facet normal 0 -1 0
    outer loop
      vertex 8 89 0
      vertex 110 89 1.5
      vertex 8 89 1.5
    endloop
  endfacet
  facet normal 0 -1 -0
    outer loop
      vertex 110 89 1.5
      vertex 8 89 0
      vertex 110 89 0
    endloop
  endfacet
  facet normal 1 0 0
    outer loop
      vertex 1.5 32 4.90426
      vertex 1.5 0 1.5
      vertex 1.5 32 1.5
    endloop
  endfacet
  facet normal 1 -0 0
    outer loop
      vertex 1.5 62 8.09575
      vertex 1.5 94 1.5
      vertex 1.5 94 11.5
    endloop
  endfacet
  facet normal 1 0 0
    outer loop
      vertex 1.5 94 1.5
      vertex 1.5 62 8.09575
      vertex 1.5 62 1.5
    endloop
  endfacet
  facet normal 1 -1.11759e-08 9.03683e-08
    outer loop
      vertex 1.5 0 11.5
      vertex 1.5 32 4.90426
      vertex 1.5 32 11.5
    endloop
  endfacet
  facet normal 1 -1.01455e-08 9.53674e-08
    outer loop
      vertex 1.5 32 4.90426
      vertex 1.5 0 11.5
      vertex 1.5 0 1.5
    endloop
  endfacet
  facet normal 1 -1.11759e-08 1.05053e-07
    outer loop
      vertex 1.5 94 11.5
      vertex 1.5 62 11.5
      vertex 1.5 62 8.09575
    endloop
  endfacet
  facet normal 0 0 -1
    outer loop
      vertex 6.5 0 11.5
      vertex 3 55.0769 11.5
      vertex 6.5 94 11.5
    endloop
  endfacet
  facet normal 0 0 -1
    outer loop
      vertex 6.5 0 11.5
      vertex 3 32 11.5
      vertex 3 55.0769 11.5
    endloop
  endfacet
  facet normal 0 0 -1
    outer loop
      vertex 1.5 0 11.5
      vertex 3 32 11.5
      vertex 6.5 0 11.5
    endloop
  endfacet
  facet normal -0 0 -1
    outer loop
      vertex 3 32 11.5
      vertex 1.5 0 11.5
      vertex 1.5 32 11.5
    endloop
  endfacet
  facet normal 0 0 -1
    outer loop
      vertex 3 62 11.5
      vertex 6.5 94 11.5
      vertex 3 55.0769 11.5
    endloop
  endfacet
  facet normal 0 0 -1
    outer loop
      vertex 3 62 11.5
      vertex 1.5 94 11.5
      vertex 6.5 94 11.5
    endloop
  endfacet
  facet normal 0 -0 -1
    outer loop
      vertex 1.5 94 11.5
      vertex 3 62 11.5
      vertex 1.5 62 11.5
    endloop
  endfacet
  facet normal 0 0 1
    outer loop
      vertex 3 58.5385 13
      vertex 6.5 94 13
      vertex 3 62 13
    endloop
  endfacet
  facet normal -0 0 1
    outer loop
      vertex 0 94 13
      vertex 3 62 13
      vertex 6.5 94 13
    endloop
  endfacet
  facet normal 0 0 1
    outer loop
      vertex 3 62 13
      vertex 0 94 13
      vertex 0 62 13
    endloop
  endfacet
  facet normal 0 0 1
    outer loop
      vertex 6.5 94 13
      vertex 3 58.5385 13
      vertex 6.5 0 13
    endloop
  endfacet
  facet normal -0 0 1
    outer loop
      vertex 3 32 13
      vertex 6.5 0 13
      vertex 3 58.5385 13
    endloop
  endfacet
  facet normal 0 0 1
    outer loop
      vertex 0 0 13
      vertex 3 32 13
      vertex 0 32 13
    endloop
  endfacet
  facet normal 0 0 1
    outer loop
      vertex 3 32 13
      vertex 0 0 13
      vertex 6.5 0 13
    endloop
  endfacet
  facet normal 1 -0 0
    outer loop
      vertex 6.5 0 13
      vertex 6.5 94 11.5
      vertex 6.5 94 13
    endloop
  endfacet
  facet normal 1 0 0
    outer loop
      vertex 6.5 94 11.5
      vertex 6.5 0 13
      vertex 6.5 0 11.5
    endloop
  endfacet
  facet normal -1 0 0
    outer loop
      vertex 3 62 11.5
      vertex 3 58.5385 13
      vertex 3 62 13
    endloop
  endfacet
  facet normal -1 0 -0
    outer loop
      vertex 3 58.5385 13
      vertex 3 62 11.5
      vertex 3 55.0769 11.5
    endloop
  endfacet
  facet normal 0 1 0
    outer loop
      vertex 1.5 32 11.5
      vertex 3 32 13
      vertex 3 32 11.5
    endloop
  endfacet
  facet normal 0 1 0
    outer loop
      vertex 3 32 13
      vertex 1.5 32 11.5
      vertex 0 32 13
    endloop
  endfacet
  facet normal 0 1 0
    outer loop
      vertex 1.5 32 4.90426
      vertex 0 32 13
      vertex 1.5 32 11.5
    endloop
  endfacet
  facet normal 0 1 0
    outer loop
      vertex 0.5 32 1.5
      vertex 1.5 32 4.90426
      vertex 1.5 32 1.5
    endloop
  endfacet
  facet normal 0 1 0
    outer loop
      vertex 0 32 1.5
      vertex 1.5 32 4.90426
      vertex 0.5 32 1.5
    endloop
  endfacet
  facet normal 0 1 0
    outer loop
      vertex 1.5 32 4.90426
      vertex 0 32 1.5
      vertex 0 32 13
    endloop
  endfacet
  facet normal -1 3.09944e-08 -1.58946e-07
    outer loop
      vertex 3 32 13
      vertex 3 55.0769 11.5
      vertex 3 32 11.5
    endloop
  endfacet
  facet normal -1 3.59356e-08 -8.29282e-08
    outer loop
      vertex 3 55.0769 11.5
      vertex 3 32 13
      vertex 3 58.5385 13
    endloop
  endfacet
  facet normal 0 -1 0
    outer loop
      vertex 0 62 13
      vertex 1.5 62 11.5
      vertex 3 62 13
    endloop
  endfacet
  facet normal 0 -1 0
    outer loop
      vertex 0 62 13
      vertex 1.5 62 8.09575
      vertex 1.5 62 11.5
    endloop
  endfacet
  facet normal 0 -1 0
    outer loop
      vertex 0 62 1.5
      vertex 1.5 62 8.09575
      vertex 0 62 13
    endloop
  endfacet
  facet normal 0 -1 0
    outer loop
      vertex 0.5 62 1.5
      vertex 1.5 62 8.09575
      vertex 0 62 1.5
    endloop
  endfacet
  facet normal 0 -1 -0
    outer loop
      vertex 1.5 62 8.09575
      vertex 0.5 62 1.5
      vertex 1.5 62 1.5
    endloop
  endfacet
  facet normal 0 -1 -0
    outer loop
      vertex 3 62 13
      vertex 1.5 62 11.5
      vertex 3 62 11.5
    endloop
  endfacet
  facet normal -1 0 0
    outer loop
      vertex 0.5 89 0
      vertex 0.5 62 1.5
      vertex 0.5 89 1.5
    endloop
  endfacet
  facet normal -1 0 0
    outer loop
      vertex 0.5 89 0
      vertex 0.5 32 1.5
      vertex 0.5 62 1.5
    endloop
  endfacet
  facet normal -1 0 0
    outer loop
      vertex 0.5 5 0
      vertex 0.5 32 1.5
      vertex 0.5 89 0
    endloop
  endfacet
  facet normal -1 -0 0
    outer loop
      vertex 0.5 32 1.5
      vertex 0.5 5 0
      vertex 0.5 5 1.5
    endloop
  endfacet
  facet normal 1 -0 0
    outer loop
      vertex 8 5 1.5
      vertex 8 89 0
      vertex 8 89 1.5
    endloop
  endfacet
  facet normal 1 0 0
    outer loop
      vertex 8 89 0
      vertex 8 5 1.5
      vertex 8 5 0
    endloop
  endfacet
  facet normal 1 -0 0
    outer loop
      vertex 140 0 11
      vertex 140 5 1.5
      vertex 140 5 11
    endloop
  endfacet
  facet normal 1 0 0
    outer loop
      vertex 140 5 1.5
      vertex 140 0 11
      vertex 140 0 1.5
    endloop
  endfacet
  facet normal -1 0 0
    outer loop
      vertex 138.5 0 1.5
      vertex 138.5 5 11
      vertex 138.5 5 1.5
    endloop
  endfacet
  facet normal -1 -0 0
    outer loop
      vertex 138.5 5 11
      vertex 138.5 0 1.5
      vertex 138.5 0 11
    endloop
  endfacet
  facet normal -1 0 0
    outer loop
      vertex 130 0 11
      vertex 130 5 12.5
      vertex 130 5 11
    endloop
  endfacet
  facet normal -1 -0 0
    outer loop
      vertex 130 5 12.5
      vertex 130 0 11
      vertex 130 0 12.5
    endloop
  endfacet
  facet normal -0 0 1
    outer loop
      vertex 130 5 12.5
      vertex 140 0 12.5
      vertex 140 5 12.5
    endloop
  endfacet
  facet normal 0 0 1
    outer loop
      vertex 140 0 12.5
      vertex 130 5 12.5
      vertex 130 0 12.5
    endloop
  endfacet
  facet normal 1 -0 0
    outer loop
      vertex 140 0 12.5
      vertex 140 5 11
      vertex 140 5 12.5
    endloop
  endfacet
  facet normal 1 0 0
    outer loop
      vertex 140 5 11
      vertex 140 0 12.5
      vertex 140 0 11
    endloop
  endfacet
  facet normal 0 0 -1
    outer loop
      vertex 130 0 11
      vertex 138.5 5 11
      vertex 138.5 0 11
    endloop
  endfacet
  facet normal -0 0 -1
    outer loop
      vertex 138.5 5 11
      vertex 130 0 11
      vertex 130 5 11
    endloop
  endfacet
  facet normal 1 -0 0
    outer loop
      vertex 140 89 11
      vertex 140 94 1.5
      vertex 140 94 11
    endloop
  endfacet
  facet normal 1 0 0
    outer loop
      vertex 140 94 1.5
      vertex 140 89 11
      vertex 140 89 1.5
    endloop
  endfacet
  facet normal -1 0 0
    outer loop
      vertex 138.5 89 1.5
      vertex 138.5 94 11
      vertex 138.5 94 1.5
    endloop
  endfacet
  facet normal -1 -0 0
    outer loop
      vertex 138.5 94 11
      vertex 138.5 89 1.5
      vertex 138.5 89 11
    endloop
  endfacet
  facet normal -1 0 0
    outer loop
      vertex 130 89 11
      vertex 130 94 12.5
      vertex 130 94 11
    endloop
  endfacet
  facet normal -1 -0 0
    outer loop
      vertex 130 94 12.5
      vertex 130 89 11
      vertex 130 89 12.5
    endloop
  endfacet
  facet normal -0 0 1
    outer loop
      vertex 130 94 12.5
      vertex 140 89 12.5
      vertex 140 94 12.5
    endloop
  endfacet
  facet normal 0 0 1
    outer loop
      vertex 140 89 12.5
      vertex 130 94 12.5
      vertex 130 89 12.5
    endloop
  endfacet
  facet normal 1 -0 0
    outer loop
      vertex 140 89 12.5
      vertex 140 94 11
      vertex 140 94 12.5
    endloop
  endfacet
  facet normal 1 0 0
    outer loop
      vertex 140 94 11
      vertex 140 89 12.5
      vertex 140 89 11
    endloop
  endfacet
  facet normal 0 0 -1
    outer loop
      vertex 130 89 11
      vertex 138.5 94 11
      vertex 138.5 89 11
    endloop
  endfacet
  facet normal -0 0 -1
    outer loop
      vertex 138.5 94 11
      vertex 130 89 11
      vertex 130 94 11
    endloop
  endfacet
  facet normal 1 -0 0
    outer loop
      vertex 115 34.6667 1.5
      vertex 115 59.3333 0
      vertex 115 59.3333 1.5
    endloop
  endfacet
  facet normal 1 0 0
    outer loop
      vertex 115 59.3333 0
      vertex 115 34.6667 1.5
      vertex 115 34.6667 0
    endloop
  endfacet
  facet normal 1 -0 0
    outer loop
      vertex 115 64.3333 1.5
      vertex 115 89 0
      vertex 115 89 1.5
    endloop
  endfacet
  facet normal 1 0 0
    outer loop
      vertex 115 89 0
      vertex 115 64.3333 1.5
      vertex 115 64.3333 0
    endloop
  endfacet
  facet normal 1 -0 0
    outer loop
      vertex 115 5 1.5
      vertex 115 29.6667 0
      vertex 115 29.6667 1.5
    endloop
  endfacet
  facet normal 1 0 0
    outer loop
      vertex 115 29.6667 0
      vertex 115 5 1.5
      vertex 115 5 0
    endloop
  endfacet
  facet normal 1 -0 0
    outer loop
      vertex 156.5 29.6667 11.5
      vertex 156.5 34.6667 0
      vertex 156.5 34.6667 11.5
    endloop
  endfacet
  facet normal 1 0 0
    outer loop
      vertex 156.5 34.6667 0
      vertex 156.5 29.6667 11.5
      vertex 156.5 29.6667 0
    endloop
  endfacet
  facet normal 0 1 0
    outer loop
      vertex 156.5 34.6667 11.5
      vertex 155 34.6667 1.5
      vertex 155 34.6667 11.5
    endloop
  endfacet
  facet normal 0 1 -0
    outer loop
      vertex 156.5 34.6667 0
      vertex 155 34.6667 1.5
      vertex 156.5 34.6667 11.5
    endloop
  endfacet
  facet normal 0 1 0
    outer loop
      vertex 115 34.6667 0
      vertex 155 34.6667 1.5
      vertex 156.5 34.6667 0
    endloop
  endfacet
  facet normal 0 1 0
    outer loop
      vertex 155 34.6667 1.5
      vertex 115 34.6667 0
      vertex 115 34.6667 1.5
    endloop
  endfacet
  facet normal 0 -1 0
    outer loop
      vertex 115 29.6667 1.5
      vertex 115 29.6667 0
      vertex 155 29.6667 1.5
    endloop
  endfacet
  facet normal 0 -1 0
    outer loop
      vertex 155 29.6667 1.5
      vertex 156.5 29.6667 11.5
      vertex 155 29.6667 11.5
    endloop
  endfacet
  facet normal 0 -1 0
    outer loop
      vertex 155 29.6667 1.5
      vertex 156.5 29.6667 0
      vertex 156.5 29.6667 11.5
    endloop
  endfacet
  facet normal 0 -1 0
    outer loop
      vertex 156.5 29.6667 0
      vertex 155 29.6667 1.5
      vertex 115 29.6667 0
    endloop
  endfacet
  facet normal -0 0 1
    outer loop
      vertex 155 34.6667 11.5
      vertex 156.5 29.6667 11.5
      vertex 156.5 34.6667 11.5
    endloop
  endfacet
  facet normal 0 0 1
    outer loop
      vertex 156.5 29.6667 11.5
      vertex 155 34.6667 11.5
      vertex 155 29.6667 11.5
    endloop
  endfacet
  facet normal -1 0 0
    outer loop
      vertex 155 29.6667 1.5
      vertex 155 34.6667 11.5
      vertex 155 34.6667 1.5
    endloop
  endfacet
  facet normal -1 -0 0
    outer loop
      vertex 155 34.6667 11.5
      vertex 155 29.6667 1.5
      vertex 155 29.6667 11.5
    endloop
  endfacet
  facet normal 1 -0 0
    outer loop
      vertex 156.5 59.3333 11.5
      vertex 156.5 64.3333 0
      vertex 156.5 64.3333 11.5
    endloop
  endfacet
  facet normal 1 0 0
    outer loop
      vertex 156.5 64.3333 0
      vertex 156.5 59.3333 11.5
      vertex 156.5 59.3333 0
    endloop
  endfacet
  facet normal 0 -1 0
    outer loop
      vertex 115 59.3333 1.5
      vertex 115 59.3333 0
      vertex 155 59.3333 1.5
    endloop
  endfacet
  facet normal 0 -1 0
    outer loop
      vertex 155 59.3333 1.5
      vertex 156.5 59.3333 11.5
      vertex 155 59.3333 11.5
    endloop
  endfacet
  facet normal 0 -1 0
    outer loop
      vertex 155 59.3333 1.5
      vertex 156.5 59.3333 0
      vertex 156.5 59.3333 11.5
    endloop
  endfacet
  facet normal 0 -1 0
    outer loop
      vertex 156.5 59.3333 0
      vertex 155 59.3333 1.5
      vertex 115 59.3333 0
    endloop
  endfacet
  facet normal 0 1 0
    outer loop
      vertex 156.5 64.3333 11.5
      vertex 155 64.3333 1.5
      vertex 155 64.3333 11.5
    endloop
  endfacet
  facet normal 0 1 -0
    outer loop
      vertex 156.5 64.3333 0
      vertex 155 64.3333 1.5
      vertex 156.5 64.3333 11.5
    endloop
  endfacet
  facet normal 0 1 0
    outer loop
      vertex 115 64.3333 0
      vertex 155 64.3333 1.5
      vertex 156.5 64.3333 0
    endloop
  endfacet
  facet normal 0 1 0
    outer loop
      vertex 155 64.3333 1.5
      vertex 115 64.3333 0
      vertex 115 64.3333 1.5
    endloop
  endfacet
  facet normal -0 0 1
    outer loop
      vertex 155 64.3333 11.5
      vertex 156.5 59.3333 11.5
      vertex 156.5 64.3333 11.5
    endloop
  endfacet
  facet normal 0 0 1
    outer loop
      vertex 156.5 59.3333 11.5
      vertex 155 64.3333 11.5
      vertex 155 59.3333 11.5
    endloop
  endfacet
  facet normal -1 0 0
    outer loop
      vertex 155 59.3333 1.5
      vertex 155 64.3333 11.5
      vertex 155 64.3333 1.5
    endloop
  endfacet
  facet normal -1 -0 0
    outer loop
      vertex 155 64.3333 11.5
      vertex 155 59.3333 1.5
      vertex 155 59.3333 11.5
    endloop
  endfacet
  facet normal -1 0 0
    outer loop
      vertex 110 5 0
      vertex 110 89 1.5
      vertex 110 89 0
    endloop
  endfacet
  facet normal -1 -0 0
    outer loop
      vertex 110 89 1.5
      vertex 110 5 0
      vertex 110 5 1.5
    endloop
  endfacet
endsolid OpenSCAD_Model
